<svg width="80" height="41" viewBox="0 0 80 41" fill="none" xmlns="http://www.w3.org/2000/svg">
<path d="M9.76813 3.6L20.3881 3.98L20.2281 5.62L9.62813 5.26L9.76813 3.6ZM17.5681 6.3L19.3681 7.06L12.7081 16.46L21.1681 16.66L21.0881 18.32L9.52813 17.88L17.5681 6.3ZM29.5197 16.62L23.8997 18.48L22.2597 12.94L27.0797 10.98L27.6597 12.44L24.2597 13.8L25.0597 16.36L29.1597 15.06L27.8997 9.44L22.8397 10.42L22.4597 8.84L29.2597 7.58L31.6197 18L29.9197 18.48L29.5197 16.62ZM35.5331 18.36L33.7931 18.42L33.4131 2.68L35.1531 2.62L35.3931 12.82L39.8731 7.58L41.1531 8.78L37.5131 12.82L42.1331 17.18L40.8531 18.48L35.4131 13.02L35.5331 18.36ZM50.34 16.62L44.72 18.48L43.08 12.94L47.9 10.98L48.48 12.44L45.08 13.8L45.88 16.36L49.98 15.06L48.72 9.44L43.66 10.42L43.28 8.84L50.08 7.58L52.44 18L50.74 18.48L50.34 16.62ZM56.2334 9.8L59.5934 7.6L60.5334 9.04L57.2134 11.24L56.2334 9.8ZM54.2534 7.7L55.9934 7.64L56.3734 18.42L54.6334 18.48L54.2534 7.7ZM62.1622 3.66H64.4822V5.98H62.1622V3.66ZM62.4422 7.8H64.1822V18.42H62.4422V7.8ZM73.7384 16.62L68.1184 18.48L66.4784 12.94L71.2984 10.98L71.8784 12.44L68.4784 13.8L69.2784 16.36L73.3784 15.06L72.1184 9.44L67.0584 10.42L66.6784 8.84L73.4784 7.58L75.8384 18L74.1384 18.48L73.7384 16.62ZM12.2222 26.9L18.8422 22.22L9.52219 21.3L9.80219 19.64L20.9022 20.76L21.5222 22.36L13.2422 28.3L12.2222 26.9ZM9.90219 22.48H11.7422L12.1422 34.46H10.3022L9.90219 22.48ZM12.7422 32.7L19.5222 31.6L19.4422 29.66L15.4022 28.58L15.9422 26.9L21.1422 28.26L21.3222 33.04L12.9822 34.4L12.7422 32.7ZM26.1358 25.8L29.4958 23.6L30.4358 25.04L27.1158 27.24L26.1358 25.8ZM24.1558 23.7L25.8958 23.64L26.2758 34.42L24.5358 34.48L24.1558 23.7ZM38.4845 32.62L32.8645 34.48L31.2245 28.94L36.0445 26.98L36.6245 28.44L33.2245 29.8L34.0245 32.36L38.1245 31.06L36.8645 25.44L31.8045 26.42L31.4245 24.84L38.2245 23.58L40.5845 34L38.8845 34.48L38.4845 32.62ZM42.338 18.68L44.078 18.62L44.458 34.36L42.718 34.42L42.338 18.68ZM48.118 25.6L45.138 26.18L44.778 24.44L49.558 23.54L51.158 34.12L49.378 34.4L48.118 25.6ZM59.7736 32.62L54.1536 34.48L52.5136 28.94L57.3336 26.98L57.9136 28.44L54.5136 29.8L55.3136 32.36L59.4136 31.06L58.1536 25.44L53.0936 26.42L52.7136 24.84L59.5136 23.58L61.8736 34L60.1736 34.48L59.7736 32.62ZM73.347 25.58L69.587 26.14L69.447 25.5L65.527 26.06V34.48H63.807V24.58L70.147 23.72L70.247 24.34L74.787 23.62L76.187 34.2L74.387 34.48L73.347 25.58ZM68.927 26.9H70.667V34.48H68.907L68.927 26.9Z" fill="black"/>
</svg>
